<?xml version="1.0" encoding="UTF-8"?>
<svg id="Ebene_1" data-name="Ebene 1" xmlns="http://www.w3.org/2000/svg" viewBox="0 0 1000 283.51">
  <defs>
    <style>
      .cls-1 {
        fill: #f7931e;
      }

      .cls-2 {
        stroke: #f7931e;
        stroke-linecap: round;
      }

      .cls-2, .cls-3 {
        fill: none;
        stroke-miterlimit: 10;
        stroke-width: 21px;
      }

      .cls-4 {
        fill: #1b5500;
      }

      .cls-4, .cls-5, .cls-6 {
        isolation: isolate;
      }

      .cls-4, .cls-6 {
        font-family: TrebuchetMS-Bold, 'Trebuchet MS';
        font-size: 250px;
        font-weight: 700;
      }

      .cls-6 {
        fill: #4d4d4d;
      }

      .cls-3 {
        stroke: #60b400;
      }
    </style>
  </defs>
  <g class="cls-5">
    <text class="cls-6" transform="translate(5.63 242.26)"><tspan x="0" y="0">Re</tspan></text>
  </g>
  <path class="cls-3" d="m325.92,138.22c.55-.25,2.8-.45,5-.45h122.93c2.2,0,4.45.2,5,.45s1,3.35,1,5.55v83.4c0,2.2-.2,4.45-.45,5s-3.35,1-5.55,1h-122.93c-2.2,0-4.45-.2-5-.45s-1-3.35-1-5.55v-83.4c0-2.2.45-5.31,1-5.55Z"/>
  <path class="cls-3" d="m472,137.51s.3-.15.68-.32-1.41-2.32-3-3.85l-69.89-67.27c-1.58-1.53-3.36-2.95-3.94-3.17s-3.22,1.55-4.85,3.01l-75.77,67.86c-1.64,1.47-3.11,2.97-3.27,3.33s2.61.66,4.81.66l151.24-.25c2.2,0,4,0,4-.01Z"/>
  <g class="cls-5">
    <text class="cls-4" transform="translate(483 242.07)"><tspan x="0" y="0">ome</tspan></text>
  </g>
  <g>
    <path class="cls-2" d="m160.03,65.01c37.27-37.27,92.87-44.88,137.63-22.84"/>
    <polygon class="cls-1" points="275.2 61.05 329.5 65.01 305.78 16 275.2 61.05"/>
  </g>
</svg>